<svg id="Capa_1" enable-background="new 0 0 512 512" height="512" viewBox="0 0 512 512" width="512" xmlns="http://www.w3.org/2000/svg"><g><g><path d="m338.323 7.701h-10.516c-.784 1.003-1.255 2.263-1.255 3.635v86.5l.026.032h15.242l2.134-2.201v-82.335c-.001-3.11-2.522-5.631-5.631-5.631z" fill="#4a80aa"/><path d="m326.837 13.332c0-3.11 2.521-5.631 5.63-5.631h-17.117c-3.109 0-5.63 2.521-5.63 5.631v82.335l1.766 2.201h17.117l-1.766-2.201z" fill="#407093"/><path d="m267.815 7.701h-10.516c-.784 1.003-1.255 2.263-1.255 3.635v86.5l.026.032h15.242l2.134-2.201v-82.335c-.001-3.11-2.522-5.631-5.631-5.631z" fill="#4a80aa"/><path d="m256.328 13.332c0-3.11 2.521-5.631 5.63-5.631h-17.117c-3.109 0-5.63 2.521-5.63 5.631v82.335l1.766 2.201h17.117l-1.766-2.201z" fill="#407093"/><path d="m197.306 7.701h-10.516c-.784 1.003-1.255 2.263-1.255 3.635v86.5l.026.032h15.242l2.134-2.201v-82.335c0-3.11-2.521-5.631-5.631-5.631z" fill="#4a80aa"/><path d="m185.82 13.332c0-3.11 2.521-5.631 5.63-5.631h-17.117c-3.109 0-5.63 2.521-5.63 5.631v82.335l1.766 2.201h17.117l-1.766-2.201z" fill="#407093"/><path d="m343.067 302.419c-8.204-8.062-14.98-16.761-20.575-25.752l-5.173-3.299h-118.833l-8.321 3.299c-5.594 8.992-12.371 17.69-20.575 25.752-14.681 14.428-14.075 38.265 1.371 51.871l22.91 20.181 2.949 2.98h119.5l2.468-2.98 22.91-20.181c15.444-13.606 16.05-37.443 1.369-51.871z" fill="#2b4d66"/><path d="m245.319 273.368h-46.833l-8.321 3.299c-5.594 8.992-12.371 17.69-20.575 25.752-14.681 14.428-14.075 38.265 1.371 51.871l22.91 20.181 2.949 2.98h48.314c.17-.99.257-1.984.237-2.98-.187-9.66-4.62-19.77-9.736-28.285-7.994-13.305-8.439-29.789-1.641-43.742 4.443-9.121 8.178-18.954 11.325-29.076z" fill="#25475b"/><path d="m215.149 194.667 3.671 3.867h73.833l4.856-3.868c-1.584-22.158.684-37.632.684-37.632l-2.623-1.75h-79.667l-1.438 1.75c0 .001 2.268 15.475.684 37.633z" fill="#2b4d66"/><path d="m215.903 155.285-1.438 1.75s2.268 15.473.684 37.632l3.671 3.867h40.731c1.906-19.438 2.329-35.284 2.407-43.25h-46.055z" fill="#25475b"/><path d="m320.653 124.701h-84.621l-3.251 2.897v1.138c0 13.195 8.716 24.427 20.665 28.298h44.746c15.01 0 27.29-12.281 27.29-27.29v-1.044z" fill="#365e7d"/><path d="m233.3 129.025v-1.111l3.604-3.212h-45.24l-4.489 4v1.044c0 15.009 12.281 27.29 27.29 27.29h40.203c-12.28-3.395-21.368-14.69-21.368-28.011z" fill="#2b4d66"/><path d="m322.492 276.667c-17.372-27.921-23.315-58.667-24.984-82h-82.36c-1.668 23.333-7.612 54.079-24.984 82z" fill="#365e7d"/><path d="m215.148 194.667c-1.668 23.333-7.612 54.079-24.984 82h54.104c9.034-27.71 13.476-57.971 15.647-82z" fill="#2b4d66"/><path d="m349.662 95.667h-124.995c-5.93 1.243-10.419 6.529-10.419 12.814v7.407c0 6.285 4.489 11.571 10.419 12.814h124.994c7.081 0 12.875-5.794 12.875-12.875v-7.285c.001-7.081-5.793-12.875-12.874-12.875z" fill="#407093"/><path d="m214.465 115.827v-7.285c0-7.081 5.794-12.875 12.875-12.875h-64.345c-7.081 0-12.875 5.794-12.875 12.875v7.285c0 7.081 5.794 12.875 12.875 12.875h64.345c-7.081 0-12.875-5.794-12.875-12.875z" fill="#365e7d"/><path d="m349.679 434.45c-2.763-15.642-16.521-26.944-32.405-26.944l-5.958-3.554h-109.975l-5.958 3.554c-15.884 0-29.642 11.302-32.405 26.944-2.107 11.93-9.079 25.812-27.316 37.217l3.158 4.784h234.5l3.675-4.784c-18.237-11.405-25.209-25.287-27.316-37.217z" fill="#365e7d"/><path d="m214.478 434.45c2.763-15.642 16.521-26.944 32.405-26.944l5.958-3.554h-51.5l-5.958 3.554c-15.884 0-29.642 11.302-32.405 26.944-2.107 11.93-9.079 25.812-27.316 37.217l3.158 4.784h51.5l-3.158-4.784c18.237-11.405 25.209-25.287 27.316-37.217z" fill="#2b4d66"/><path d="m380.454 471.667h-199.6c-5.86 1.312-10.277 6.563-10.277 12.804v7.427c0 6.24 4.417 11.492 10.277 12.804h199.599c7.081 0 12.875-5.794 12.875-12.875v-7.285c.001-7.082-5.793-12.875-12.874-12.875z" fill="#407093"/><path d="m170.829 491.827v-7.285c0-7.082 5.794-12.875 12.875-12.875h-51.5c-7.081 0-12.875 5.793-12.875 12.875v7.285c0 7.081 5.794 12.875 12.875 12.875h51.5c-7.082 0-12.875-5.794-12.875-12.875z" fill="#365e7d"/><path d="m318.787 374.471h-76.309c-5.844 1.328-10.243 6.571-10.243 12.802v7.432c0 6.23 4.4 11.474 10.243 12.802h76.309c7.081 0 12.875-5.794 12.875-12.875v-7.285c0-7.082-5.794-12.876-12.875-12.876z" fill="#407093"/><path d="m232.495 394.631v-7.285c0-7.081 5.794-12.875 12.875-12.875h-51.5c-7.081 0-12.875 5.794-12.875 12.875v7.285c0 7.081 5.794 12.875 12.875 12.875h51.5c-7.081 0-12.875-5.794-12.875-12.875z" fill="#365e7d"/></g><g><path d="m131.875 512h248.25c11.234 0 20.375-9.14 20.375-20.375v-7.285c0-11.235-9.141-20.375-20.375-20.375h-1.231c-12.531-8.323-19.991-18.747-22.158-31.021-2.202-12.469-10.033-22.712-20.636-28.366 1.728-2.992 2.733-6.452 2.733-10.148v-7.285c0-5.933-2.564-11.265-6.625-14.992l14.118-12.436c18.698-16.472 19.429-45.393 1.669-62.848-34.467-33.872-47.02-86.299-43.295-133.213 13.835-2.768 24.725-13.768 27.343-27.655h17.29c11.234 0 20.375-9.14 20.375-20.375v-7.285c0-10.63-8.186-19.372-18.583-20.284v-19.075c0-4.142-3.357-7.5-7.5-7.5s-7.5 3.358-7.5 7.5v18.983h-19.233v-72.965h19.233v18.982c0 4.142 3.357 7.5 7.5 7.5s7.5-3.358 7.5-7.5v-20.852c0-7.24-5.891-13.13-13.131-13.13h-22.973c-7.24 0-13.13 5.89-13.13 13.13v74.835h-21.275v-74.835c0-7.24-5.89-13.13-13.13-13.13h-22.973c-7.24 0-13.131 5.89-13.131 13.13v74.835h-21.274v-74.835c0-7.24-5.891-13.13-13.131-13.13h-22.973c-7.24 0-13.13 5.89-13.13 13.13v74.926c-10.397.911-18.584 9.654-18.584 20.284v7.285c0 11.235 9.141 20.375 20.375 20.375h17.291c2.618 13.886 13.506 24.885 27.339 27.655 1.565 19.964 2.992 87.73-43.291 133.214-17.775 17.47-17.015 46.388 1.67 62.848l14.117 12.435c-4.061 3.727-6.625 9.059-6.625 14.992v7.285c0 3.697 1.005 7.156 2.733 10.148-10.603 5.655-18.435 15.898-20.637 28.367-2.167 12.274-9.628 22.698-22.158 31.021h-1.23c-11.234 0-20.375 9.14-20.375 20.375v7.285c.001 11.235 9.142 20.375 20.376 20.375zm114.508-497h19.233v72.966h-19.233zm-70.508 0h19.233v72.966h-19.233zm-13.209 106c-2.964 0-5.375-2.411-5.375-5.375v-7.285c0-2.964 2.411-5.375 5.375-5.375h186.667c2.964 0 5.375 2.411 5.375 5.375v7.285c0 2.964-2.411 5.375-5.375 5.375-7.494 0-180.335 0-186.667 0zm32.762 15h121.145c-2.683 7.751-10.057 13.333-18.709 13.333h-83.727-.001c-8.653.001-16.026-5.581-18.708-13.333zm93.835 50.966h-66.526c.341-9.37.052-17.174-.33-22.632h67.186c-.382 5.458-.671 13.262-.33 22.632zm-113.673 161.495c-12.198-10.745-12.661-29.503-1.071-40.894 7.213-7.089 13.677-14.989 19.358-23.602h44.623c4.143 0 7.5-3.358 7.5-7.5s-3.357-7.5-7.5-7.5h-35.832c9.451-18.543 16.376-41.195 19.029-67h68.606c2.415 23.497 8.707 46.752 19.028 67h-35.831c-4.143 0-7.5 3.358-7.5 7.5s3.357 7.5 7.5 7.5h44.623c5.682 8.613 12.145 16.513 19.358 23.602 11.593 11.394 11.122 30.151-1.07 40.894l-20.785 18.309h-119.252zm148.243 38.684v7.285c0 2.964-2.411 5.375-5.375 5.375-15.402 0-114.589 0-124.917 0-2.964 0-5.375-2.411-5.375-5.375v-7.285c0-2.963 2.41-5.373 5.372-5.375h.004 124.916.003c2.963.002 5.372 2.412 5.372 5.375zm-153.799 48.408c2.123-12.022 12.646-20.749 25.02-20.749h121.892c12.374 0 22.896 8.726 25.02 20.749 1.853 10.491 6.626 20.086 14.048 28.413h-200.028c7.423-8.327 12.196-17.922 14.048-28.413zm-43.534 48.787c0-2.964 2.411-5.375 5.375-5.375h248.25c2.964 0 5.375 2.411 5.375 5.375v7.285c0 2.964-2.411 5.375-5.375 5.375h-248.25c-2.964 0-5.375-2.411-5.375-5.375z"/></g></g></svg>