<svg id="Capa_1" enable-background="new 0 0 512 512" height="512" viewBox="0 0 512 512" width="512" xmlns="http://www.w3.org/2000/svg"><g><g><path d="m329.735 313.494c-33.893-33.308-39.06-79.426-39.03-104.681l-2.509-2.005h-63l-3.242 2.005c.03 25.255-5.137 71.374-39.03 104.681-12.424 12.21-11.912 32.383 1.16 43.898l19.388 17.079 3.183 2.754h98.667l3.867-2.754 19.388-17.079c13.07-11.515 13.582-31.687 1.158-43.898z" fill="#2b4d66"/><path d="m237.217 350.702c-6.298-9.577-6.661-21.887-1.219-31.976 21.534-39.927 23.24-97.995 23.33-111.918h-34.133l-3.242 2.005c.03 25.255-5.137 71.374-39.03 104.681-12.424 12.21-11.912 32.383 1.16 43.898l19.388 17.079 3.183 2.754h40.915c-1.136-10.128-5.633-19.347-10.352-26.523z" fill="#25475b"/><path d="m312.154 177.058h-60.488l-3.816 2.506v1.097c0 14.458 10.845 26.499 24.8 28.409h14.311c15.511 0 28.202-12.691 28.202-28.202v-1.079z" fill="#365e7d"/><path d="m248.328 180.869v-1.079l4.159-2.732h-50.833l-4.159 2.732v1.079c0 15.511 12.691 28.202 28.202 28.202h50.833c-15.511 0-28.202-12.691-28.202-28.202z" fill="#2b4d66"/><path d="m256.329 7.701c-42.09 0-76.211 34.121-76.211 76.211 0 25.404 12.442 47.891 31.552 61.738l3.651 2.408h81.125l4.543-2.408c19.11-13.848 31.552-36.334 31.552-61.738-.001-42.09-34.122-76.211-76.212-76.211z" fill="#4a80aa"/><path d="m227.118 83.912c0-33.887 22.125-62.594 52.711-72.501-7.404-2.398-15.297-3.709-23.5-3.709-42.09 0-76.211 34.121-76.211 76.211 0 25.404 12.442 47.891 31.552 61.738l3.651 2.408h47l-3.651-2.408c-19.11-13.848-31.552-36.334-31.552-61.739z" fill="#407093"/><path d="m323.239 145.651h-85.797c-6.109 1.303-10.729 6.756-10.729 13.239v7.661c0 6.483 4.62 11.936 10.729 13.24h85.797c7.318 0 13.306-5.988 13.306-13.306v-7.528c0-7.319-5.988-13.306-13.306-13.306z" fill="#407093"/><path d="m226.947 166.484v-7.528c0-7.318 5.987-13.305 13.305-13.305h-50.833c-7.318 0-13.306 5.987-13.306 13.305v7.528c0 7.318 5.988 13.306 13.306 13.306h50.833c-7.318 0-13.305-5.988-13.305-13.306z" fill="#365e7d"/><path d="m349.68 434.45c-2.763-15.642-16.521-26.944-32.405-26.944l-5.958-3.554h-109.976l-5.958 3.554c-15.884 0-29.642 11.302-32.405 26.944-2.107 11.93-9.079 25.812-27.316 37.217l3.158 4.784h234.5l3.675-4.784c-18.236-11.405-25.208-25.287-27.315-37.217z" fill="#365e7d"/><path d="m214.478 434.45c2.763-15.642 16.521-26.944 32.405-26.944l5.958-3.554h-51.5l-5.958 3.554c-15.884 0-29.642 11.302-32.405 26.944-2.107 11.93-9.079 25.812-27.316 37.217l3.158 4.784h51.5l-3.158-4.784c18.237-11.405 25.209-25.287 27.316-37.217z" fill="#2b4d66"/><path d="m380.454 471.667h-199.6c-5.86 1.312-10.277 6.563-10.277 12.804v7.427c0 6.24 4.417 11.492 10.277 12.804h199.599c7.081 0 12.875-5.794 12.875-12.875v-7.285c.001-7.082-5.793-12.875-12.874-12.875z" fill="#407093"/><path d="m170.829 491.827v-7.285c0-7.082 5.794-12.875 12.875-12.875h-51.5c-7.081 0-12.875 5.793-12.875 12.875v7.285c0 7.081 5.794 12.875 12.875 12.875h51.5c-7.081 0-12.875-5.794-12.875-12.875z" fill="#365e7d"/><path d="m318.788 374.471h-76.309c-5.844 1.328-10.243 6.571-10.243 12.802v7.432c0 6.23 4.4 11.474 10.243 12.802h76.309c7.081 0 12.875-5.794 12.875-12.875v-7.285c0-7.082-5.794-12.876-12.875-12.876z" fill="#407093"/><path d="m232.496 394.631v-7.285c0-7.081 5.794-12.875 12.875-12.875h-51.5c-7.081 0-12.875 5.794-12.875 12.875v7.285c0 7.081 5.794 12.875 12.875 12.875h51.5c-7.082 0-12.875-5.794-12.875-12.875z" fill="#365e7d"/></g><g><path d="m131.875 512h106.625c4.143 0 7.5-3.358 7.5-7.5s-3.357-7.5-7.5-7.5h-106.625c-2.964 0-5.375-2.411-5.375-5.375v-7.285c0-2.964 2.411-5.375 5.375-5.375h248.25c2.964 0 5.375 2.411 5.375 5.375v7.285c0 2.964-2.411 5.375-5.375 5.375h-106.625c-4.143 0-7.5 3.358-7.5 7.5s3.357 7.5 7.5 7.5h106.625c11.234 0 20.375-9.14 20.375-20.375v-7.285c0-11.235-9.141-20.375-20.375-20.375h-1.23c-12.53-8.323-19.991-18.747-22.159-31.021-2.202-12.469-10.034-22.712-20.636-28.366 1.728-2.992 2.733-6.452 2.733-10.148v-7.285c0-8.294-4.989-15.434-12.118-18.61l6.489-5.716c16.321-14.378 16.97-39.631 1.459-54.875-29.57-29.061-35.904-68.918-36.691-93.431 12.17-4.089 21.426-14.562 23.772-27.424h1.166c11.473 0 20.806-9.333 20.806-20.805v-7.528c0-11.472-9.333-20.806-20.806-20.806h-3.224c10.315-12.132 17.119-27.067 19.263-42.973.554-4.105-2.325-7.881-6.431-8.435-4.097-.557-7.881 2.325-8.435 6.431-2.387 17.701-11.789 33.963-25.927 44.977h-84.314c-16.67-12.985-26.554-33.084-26.554-54.238.001-37.888 30.825-68.712 68.712-68.712 29.348 0 55.465 18.65 64.989 46.409 1.345 3.918 5.616 6.004 9.527 4.66 3.918-1.344 6.005-5.61 4.66-9.528-11.602-33.819-43.421-56.541-79.176-56.541-46.158 0-83.711 37.553-83.711 83.711 0 20.008 7.255 39.237 19.997 54.238h-3.196c-11.473 0-20.806 9.333-20.806 20.806v7.528c0 11.472 9.333 20.805 20.806 20.805h1.166c2.347 12.862 11.603 23.335 23.772 27.424-.787 24.513-7.121 64.371-36.691 93.431-15.52 15.252-14.856 40.503 1.459 54.875l6.489 5.716c-7.128 3.176-12.118 10.315-12.118 18.61v7.285c0 3.697 1.005 7.156 2.733 10.148-10.603 5.655-18.434 15.898-20.636 28.366-2.168 12.274-9.629 22.699-22.159 31.021h-1.23c-11.234 0-20.375 9.14-20.375 20.375v7.285c0 11.236 9.141 20.376 20.375 20.376zm57.215-339.912c-3.201 0-5.806-2.604-5.806-5.805v-7.528c0-3.201 2.604-5.806 5.806-5.806h133.82c3.201 0 5.806 2.604 5.806 5.806v7.528c0 3.201-2.604 5.805-5.806 5.805-4.517 0-129.126 0-133.82 0zm16.596 15h100.629c-2.783 8.512-10.796 14.281-19.683 14.281h-61.264c-8.88.001-16.898-5.765-19.682-14.281zm-17.835 131.554c32.647-32.083 40.055-75.197 41.124-102.272h54.051c1.069 27.075 8.477 70.188 41.124 102.272 9.335 9.174 8.953 24.275-.861 32.921l-17.261 15.207h-100.055l-17.262-15.207c-9.817-8.649-10.192-23.75-.86-32.921zm135.982 68.503v7.285c0 2.964-2.411 5.375-5.375 5.375-15.402 0-114.588 0-124.916 0-2.964 0-5.375-2.411-5.375-5.375v-7.285c0-2.964 2.411-5.375 5.375-5.375h124.916c2.964 0 5.375 2.411 5.375 5.375zm-153.798 48.408c2.123-12.022 12.646-20.749 25.02-20.749h121.892c12.373 0 22.896 8.726 25.019 20.749 1.854 10.492 6.626 20.086 14.049 28.412h-200.028c7.422-8.325 12.195-17.921 14.048-28.412z"/></g></g></svg>