<svg id="Capa_1" enable-background="new 0 0 512 512" height="512" viewBox="0 0 512 512" width="512" xmlns="http://www.w3.org/2000/svg"><g><g><path d="m329.07 79.545-12.906-6.813-.973.259-20.767 26.492c-2.87 3.662-8.635 2.807-10.319-1.531l-18.439-47.493-.845-.884h-17.042l-.786.884-18.439 47.493c-1.684 4.337-7.449 5.192-10.319 1.531l-20.767-26.492-1.521-.666-12.72 7.188v.895l21.69 55.89 1.265 1.653h99.765l1.798-1.653 21.69-55.89z" fill="#365e7d"/><path d="m231.858 89.442-3.305 8.512c-1.684 4.337-7.449 5.192-10.319 1.531l-20.767-26.492-1.521-.666-12.72 7.188v.895l21.69 55.89 1.265 1.653h35.963l2.728-1.653z" fill="#2b4d66"/><path d="m342.867 38.588c-6.649 3.987-11.107 11.251-11.107 19.568s4.458 15.581 11.107 19.568c6.859-3.829 11.5-11.155 11.5-19.568s-4.642-15.739-11.5-19.568z" fill="#4a80aa"/><path d="m331.967 58.155c0-8.29 4.506-15.522 11.2-19.396-3.295-1.907-7.118-3.004-11.2-3.004-12.371 0-22.4 10.029-22.4 22.399 0 12.371 10.029 22.4 22.4 22.4 4.081 0 7.904-1.097 11.2-3.004-6.694-3.873-11.2-11.105-11.2-19.395z" fill="#407093"/><path d="m230.378 231.492 2.067 3.209h46.125l3.709-3.209c.039-7.538.296-15.083.831-22.623l.794-11.202-2.459-2.966h-50.158l-2.533 2.966.794 11.202c.534 7.54.792 15.085.83 22.623z" fill="#2b4d66"/><path d="m228.754 197.667.794 11.202c.534 7.541.792 15.085.831 22.623l2.067 3.21h29.916c.261-22.903-.882-38.034-.882-38.034l-1.671-1.966h-28.521z" fill="#25475b"/><path d="m300.893 344.825-3.573-3.249h-80.75l-4.806 3.249c-.247.715-.475 1.437-.727 2.151l-9.697 27.496 1.313 3.23h105.333l3.33-3.23-9.696-27.496c-.251-.714-.48-1.436-.727-2.151z" fill="#2b4d66"/><path d="m250.08 341.576h-33.51l-4.806 3.249c-.247.715-.475 1.437-.727 2.151l-9.697 27.496 1.313 3.23h35.808c4.723-11.506 8.54-23.707 11.619-36.126z" fill="#25475b"/><path d="m349.68 434.45c-2.763-15.642-16.521-26.944-32.405-26.944l-5.958-3.554h-109.976l-5.958 3.554c-15.884 0-29.642 11.302-32.405 26.944-2.107 11.93-9.079 25.812-27.316 37.217l3.158 4.784h234.5l3.675-4.784c-18.236-11.405-25.208-25.287-27.315-37.217z" fill="#365e7d"/><path d="m214.478 434.45c2.763-15.642 16.521-26.944 32.405-26.944l5.958-3.554h-51.5l-5.958 3.554c-15.884 0-29.642 11.302-32.405 26.944-2.107 11.93-9.079 25.812-27.316 37.217l3.158 4.784h51.5l-3.158-4.784c18.237-11.405 25.209-25.287 27.316-37.217z" fill="#2b4d66"/><path d="m310.654 166.868h-68.096l-1.771 1.403v1.129c0 13.309 8.408 24.61 19.851 28.267h26.026c15.01 0 27.29-12.281 27.29-27.29v-1.044z" fill="#365e7d"/><path d="m241.154 169.628v-1.109l2.084-1.651h-41.227l-3.308 2.465v1.044c0 15.009 12.281 27.29 27.29 27.29h35.486c-11.664-3.298-20.325-14.644-20.325-28.039z" fill="#2b4d66"/><path d="m211.765 344.825h89.129c-12.527-36.302-18.811-74.703-18.614-113.333h-51.901c.197 38.63-6.087 77.031-18.614 113.333z" fill="#365e7d"/><path d="m262.39 231.492h-32.011c.197 38.63-6.087 77.031-18.614 113.333h37.493c10.536-40.642 12.955-84.074 13.132-113.333z" fill="#2b4d66"/><path d="m318.787 136.299h-76.563c-5.94 1.232-10.44 6.523-10.44 12.815v7.404c0 6.292 4.5 11.583 10.44 12.815h76.563c7.081 0 12.875-5.794 12.875-12.875v-7.285c0-7.081-5.793-12.874-12.875-12.874z" fill="#407093"/><path d="m231.996 156.458v-7.285c0-7.081 5.794-12.875 12.875-12.875h-51c-7.081 0-12.875 5.794-12.875 12.875v7.285c0 7.081 5.794 12.875 12.875 12.875h51c-7.082 0-12.875-5.793-12.875-12.875z" fill="#365e7d"/><path d="m380.454 471.667h-199.6c-5.86 1.312-10.277 6.563-10.277 12.804v7.427c0 6.24 4.417 11.492 10.277 12.804h199.599c7.081 0 12.875-5.794 12.875-12.875v-7.285c.001-7.082-5.793-12.875-12.874-12.875z" fill="#407093"/><path d="m170.829 491.827v-7.285c0-7.082 5.794-12.875 12.875-12.875h-51.5c-7.081 0-12.875 5.793-12.875 12.875v7.285c0 7.081 5.794 12.875 12.875 12.875h51.5c-7.081 0-12.875-5.794-12.875-12.875z" fill="#365e7d"/><path d="m318.787 374.471h-76.309c-5.844 1.328-10.243 6.571-10.243 12.802v7.432c0 6.23 4.4 11.474 10.243 12.802h76.309c7.081 0 12.875-5.794 12.875-12.875v-7.285c0-7.082-5.793-12.876-12.875-12.876z" fill="#407093"/><path d="m232.496 394.631v-7.285c0-7.081 5.794-12.875 12.875-12.875h-51.5c-7.081 0-12.875 5.794-12.875 12.875v7.285c0 7.081 5.794 12.875 12.875 12.875h51.5c-7.082 0-12.875-5.794-12.875-12.875z" fill="#365e7d"/><path d="m267.229 10.533c-6.649 3.987-11.107 11.251-11.107 19.568s4.458 15.581 11.107 19.568c6.859-3.829 11.5-11.155 11.5-19.568s-4.641-15.739-11.5-19.568z" fill="#4a80aa"/><path d="m256.329 30.101c0-8.29 4.506-15.522 11.2-19.396-3.295-1.907-7.118-3.004-11.2-3.004-12.371 0-22.4 10.029-22.4 22.399 0 12.371 10.029 22.4 22.4 22.4 4.081 0 7.904-1.097 11.2-3.004-6.694-3.873-11.2-11.106-11.2-19.395z" fill="#407093"/><path d="m191.592 38.588c-6.649 3.987-11.107 11.251-11.107 19.568s4.458 15.581 11.107 19.568c6.859-3.829 11.5-11.155 11.5-19.568s-4.642-15.739-11.5-19.568z" fill="#4a80aa"/><path d="m180.692 58.155c0-8.29 4.506-15.522 11.2-19.396-3.295-1.907-7.118-3.004-11.2-3.004-12.371 0-22.4 10.029-22.4 22.399 0 12.371 10.029 22.4 22.4 22.4 4.081 0 7.904-1.097 11.2-3.004-6.694-3.873-11.2-11.105-11.2-19.395z" fill="#407093"/></g><g><path d="m131.875 512h106.625c4.143 0 7.5-3.358 7.5-7.5s-3.357-7.5-7.5-7.5h-106.625c-2.964 0-5.375-2.411-5.375-5.375v-7.284c0-2.964 2.411-5.375 5.375-5.375h248.25c2.964 0 5.375 2.411 5.375 5.375v7.284c0 2.964-2.411 5.375-5.375 5.375h-106.625c-4.143 0-7.5 3.358-7.5 7.5s3.357 7.5 7.5 7.5h106.625c11.234 0 20.375-9.14 20.375-20.375v-7.284c0-11.235-9.141-20.375-20.375-20.375h-1.229c-12.531-8.323-19.992-18.747-22.159-31.021-2.202-12.469-10.033-22.712-20.636-28.366 1.728-2.992 2.733-6.452 2.733-10.148v-7.285c0-11.235-9.141-20.375-20.375-20.375h-2.163c-8.434-23.916-14.408-39.277-19.768-64.936-.848-4.054-4.816-6.658-8.875-5.808-4.055.847-6.655 4.82-5.809 8.875 2.274 10.888 5.08 21.677 8.357 32.222h-68.397c9.746-31.378 15.114-64.188 15.705-98.333h36.97c.169 10.131.771 20.269 1.809 30.346.426 4.121 4.117 7.119 8.229 6.692 4.12-.424 7.116-4.108 6.692-8.229-1.997-19.385-2.311-39.168-.947-58.401l.319-4.501c15.085-1.845 27.211-13.377 29.952-28.17 10.263-1.043 18.299-9.736 18.299-20.27v-7.285c0-11.235-9.141-20.375-20.375-20.375h-.089l15.858-40.863c15.277-1.319 27.309-14.167 27.309-29.78 0-16.487-13.413-29.899-29.899-29.899s-29.899 13.413-29.899 29.899c0 5.288 1.385 10.255 3.804 14.569l-15.727 20.062-15.247-39.276c6.898-5.482 11.334-13.936 11.334-23.411-.001-16.486-13.414-29.899-29.901-29.899-16.486 0-29.899 13.413-29.899 29.899 0 9.475 4.436 17.929 11.334 23.411l-15.25 39.275-15.726-20.061c2.418-4.314 3.804-9.282 3.804-14.57 0-16.487-13.413-29.899-29.899-29.899s-29.899 13.413-29.899 29.899c0 15.613 12.031 28.461 27.309 29.78l15.858 40.863h-.088c-11.234 0-20.375 9.14-20.375 20.375v7.285c0 10.534 8.036 19.227 18.299 20.27 2.741 14.793 14.867 26.325 29.952 28.17l.319 4.501c5.442 76.787-16.307 129.993-26.032 157.572h-2.163c-11.234 0-20.375 9.14-20.375 20.375v7.285c0 3.697 1.005 7.156 2.733 10.148-10.603 5.655-18.434 15.898-20.636 28.367-2.167 12.274-9.628 22.698-22.159 31.021h-1.23c-11.234 0-20.375 9.14-20.375 20.375v7.284c-.002 11.235 9.139 20.375 20.373 20.375zm143.426-303.863c-.368 5.2-.615 10.421-.75 15.653h-37.105c-.133-5.227-.376-10.447-.745-15.653l-.225-3.171h39.05zm56.337-165.082c8.216 0 14.899 6.684 14.899 14.899s-6.684 14.899-14.899 14.899c-8.276 0-14.899-6.771-14.899-14.899-.001-8.215 6.683-14.899 14.899-14.899zm-75.638-28.055c8.216 0 14.9 6.684 14.9 14.899 0 9.429-8.782 16.664-18.213 14.515-6.669-1.513-11.587-7.492-11.587-14.515.001-8.215 6.684-14.899 14.9-14.899zm-75.637 57.854c-8.216 0-14.899-6.684-14.899-14.899s6.684-14.899 14.899-14.899 14.899 6.684 14.899 14.899c.001 8.174-6.682 14.899-14.899 14.899zm12.487 12.27c.653-.3 2.139-1.065 3.12-1.666l16.033 20.452c2.986 3.811 7.813 5.738 12.606 5.026 4.789-.71 8.854-3.955 10.606-8.47l15.941-41.058c3.257.525 6.718.487 9.687 0l15.941 41.059c1.753 4.514 5.817 7.759 10.606 8.469 4.79.712 9.619-1.216 12.606-5.026l16.032-20.453c.945.579 2.387 1.33 3.121 1.667l-16.872 43.474h-92.559zm.692 76.508c-2.964 0-5.375-2.411-5.375-5.375v-7.285c0-2.964 2.411-5.375 5.375-5.375h124.917c2.964 0 5.375 2.411 5.375 5.375v7.285c0 2.964-2.411 5.375-5.375 5.375-6.688 0-119.987 0-124.917 0zm13.414 15h98.089c-2.683 7.751-10.057 13.333-18.709 13.333h-60.671c-8.652 0-16.026-5.582-18.709-13.333zm9.819 175.492h78.45l5.165 14.646h-88.78zm-28.608 35.021c0-2.964 2.411-5.375 5.375-5.375h124.917c2.964 0 5.375 2.411 5.375 5.375v7.285c0 2.964-2.411 5.375-5.375 5.375-15.402 0-114.589 0-124.917 0-2.964 0-5.375-2.411-5.375-5.375zm-18.132 48.408c2.123-12.022 12.646-20.749 25.02-20.749h121.892c12.374 0 22.896 8.726 25.02 20.749 1.853 10.491 6.625 20.086 14.048 28.413h-200.028c7.422-8.327 12.196-17.922 14.048-28.413z"/></g></g></svg>