<?xml version="1.0"?>
<svg xmlns="http://www.w3.org/2000/svg" xmlns:xlink="http://www.w3.org/1999/xlink" xmlns:svgjs="http://svgjs.com/svgjs" version="1.1" width="512" height="512" x="0" y="0" viewBox="0 0 512 512" style="enable-background:new 0 0 512 512" xml:space="preserve" class=""><g><g xmlns="http://www.w3.org/2000/svg"><g><path d="m294.184 86.691-24.625-31.952-24.558 31.865c-9.627 12.492-9.627 29.903 0 42.394l5.373 6.971 1.937 1.107h34.01l2.562-1.668 5.302-6.88c9.5-12.327 9.5-29.509-.001-41.837z" fill="#ffcf70" data-original="#407093" style="" class=""/><path d="m245.326 128.528c-9.501-12.327-9.501-29.509 0-41.837l24.429-31.698-3.65-4.736-1.66-.869h-16.688l-1.205.869-28.079 36.433c-9.501 12.328-9.501 29.51 0 41.837l5.302 6.88 2.92 1.668h26.853l-2.92-1.668z" fill="#cc9640" data-original="#365e7d" style="" class=""/><path d="m301.62 346.976c-13.795-39.117-20.302-80.734-19.242-122.478l-3.141-2.463h-46.5l-2.458 2.463c1.06 41.744-5.447 83.361-19.242 122.478l-9.697 27.496 3.854 2.105h104l2.121-2.105z" fill="#ffcf70" data-original="#2b4d66" style="" class=""/><path d="m245.371 374.471c17.152-65.208 17.123-133.925 16.756-152.437h-29.39l-2.458 2.463c1.06 41.744-5.447 83.361-19.242 122.478l-9.697 27.496 3.854 2.105h39.581c.201-.699.408-1.391.596-2.105z" fill="#cc9640" data-original="#25475b" style="" class=""/><path d="m283.164 134.796h-24.589c-13.628 1.698-24.266 13.395-24.266 27.463v1.059l2.85 2.008h70.161l3.134-2.197v-1.044c0-15.008-12.28-27.289-27.29-27.289z" fill="#cc9640" data-original="#365e7d" style="" class=""/><path d="m234.703 162.086c0-15.009 12.281-27.29 27.29-27.29h-32.5c-15.009 0-27.29 12.281-27.29 27.29v1.044l3.117 2.197h32.5l-3.117-2.197z" fill="#ffcf70" data-original="#2b4d66" style="" class=""/><path d="m308.695 194.201h-71.457l-2.928 1.773v1.059c0 14.073 10.646 25.773 24.28 27.465h24.575c15.009 0 27.29-12.281 27.29-27.29v-1.044z" fill="#cc9640" data-original="#365e7d" style="" class=""/><path d="m234.703 197.208v-1.044l3.242-1.963h-32.5l-3.242 1.963v1.044c0 15.009 12.281 27.29 27.29 27.29h32.5c-15.009 0-27.29-12.281-27.29-27.29z" fill="#ffcf70" data-original="#2b4d66" style="" class=""/><path d="m315.287 163.13h-88.681c-5.696 1.465-9.944 6.644-9.944 12.781v7.474c0 6.136 4.247 11.315 9.943 12.781h88.682c7.082 0 12.875-5.794 12.875-12.875v-7.285c0-7.082-5.793-12.876-12.875-12.876z" fill="#ffcf70" data-original="#407093" style="" class=""/><path d="m216.995 183.29v-7.285c0-7.081 5.793-12.875 12.875-12.875h-32.5c-7.082 0-12.875 5.794-12.875 12.875v7.285c0 7.081 5.793 12.875 12.875 12.875h32.5c-7.081 0-12.875-5.794-12.875-12.875z" fill="#cc9640" data-original="#365e7d" style="" class=""/><path d="m349.68 434.45c-2.763-15.642-16.521-26.944-32.405-26.944l-5.958-3.554h-109.976l-5.958 3.554c-15.884 0-29.642 11.302-32.405 26.944-2.107 11.93-9.079 25.812-27.316 37.217l3.158 4.784h234.5l3.675-4.784c-18.236-11.405-25.208-25.287-27.315-37.217z" fill="#cc9640" data-original="#365e7d" style="" class=""/><path d="m214.478 434.45c2.763-15.642 16.521-26.944 32.405-26.944l5.958-3.554h-51.5l-5.958 3.554c-15.884 0-29.642 11.302-32.405 26.944-2.107 11.93-9.079 25.812-27.316 37.217l3.158 4.784h51.5l-3.158-4.784c18.238-11.405 25.209-25.287 27.316-37.217z" fill="#ffcf70" data-original="#2b4d66" style="" class=""/><path d="m380.454 471.667h-199.6c-5.86 1.312-10.277 6.563-10.277 12.804v7.427c0 6.24 4.417 11.492 10.277 12.804h199.599c7.081 0 12.875-5.794 12.875-12.875v-7.285c.001-7.082-5.792-12.875-12.874-12.875z" fill="#ffcf70" data-original="#407093" style="" class=""/><path d="m170.829 491.827v-7.285c0-7.082 5.794-12.875 12.875-12.875h-51.5c-7.081 0-12.875 5.793-12.875 12.875v7.285c0 7.081 5.794 12.875 12.875 12.875h51.5c-7.081 0-12.875-5.794-12.875-12.875z" fill="#cc9640" data-original="#365e7d" style="" class=""/><path d="m318.788 374.471h-76.309c-5.844 1.328-10.243 6.571-10.243 12.802v7.432c0 6.23 4.4 11.474 10.243 12.802h76.309c7.081 0 12.875-5.794 12.875-12.875v-7.285c0-7.082-5.794-12.876-12.875-12.876z" fill="#ffcf70" data-original="#407093" style="" class=""/><path d="m232.496 394.631v-7.285c0-7.081 5.794-12.875 12.875-12.875h-51.5c-7.081 0-12.875 5.794-12.875 12.875v7.285c0 7.081 5.794 12.875 12.875 12.875h51.5c-7.081 0-12.875-5.794-12.875-12.875z" fill="#cc9640" data-original="#365e7d" style="" class=""/><path d="m267.229 10.533c-6.649 3.987-11.107 11.251-11.107 19.568s4.458 15.581 11.107 19.568c6.859-3.829 11.5-11.155 11.5-19.568s-4.642-15.739-11.5-19.568z" fill="#ffcf70" data-original="#4a80aa" style="" class=""/><path d="m256.329 30.101c0-8.29 4.506-15.522 11.2-19.396-3.295-1.907-7.118-3.004-11.2-3.004-12.371 0-22.4 10.029-22.4 22.399 0 12.371 10.029 22.4 22.4 22.4 4.081 0 7.904-1.097 11.2-3.004-6.694-3.873-11.2-11.106-11.2-19.395z" fill="#ffcf70" data-original="#407093" style="" class=""/></g><g><path d="m131.875 512h106.625c4.143 0 7.5-3.358 7.5-7.5s-3.357-7.5-7.5-7.5h-106.625c-2.964 0-5.375-2.411-5.375-5.375v-7.284c0-2.964 2.411-5.375 5.375-5.375h248.25c2.964 0 5.375 2.411 5.375 5.375v7.284c0 2.964-2.411 5.375-5.375 5.375h-106.625c-4.143 0-7.5 3.358-7.5 7.5s3.357 7.5 7.5 7.5h106.625c11.234 0 20.375-9.14 20.375-20.375v-7.284c0-11.235-9.141-20.375-20.375-20.375h-1.229c-12.531-8.323-19.992-18.747-22.16-31.022-2.202-12.468-10.033-22.711-20.636-28.366 1.728-2.992 2.733-6.452 2.733-10.149v-7.285c0-11.235-9.141-20.375-20.375-20.375h-2.163l-7.931-22.49c-3.368-9.548-6.338-19.414-8.827-29.324-1.009-4.017-5.089-6.457-9.102-5.446-4.018 1.009-6.456 5.084-5.447 9.102 2.603 10.359 5.708 20.674 9.229 30.658l6.172 17.501h-88.78l6.172-17.501c13.295-37.7 19.939-77.182 19.779-117.472h36.881c-.055 17.01 1.134 34.145 3.545 51.045.586 4.101 4.377 6.949 8.484 6.366 4.101-.585 6.95-4.383 6.365-8.484-2.342-16.413-3.476-33.054-3.388-49.566 13.975-2.701 24.989-13.789 27.586-27.801 10.263-1.043 18.299-9.736 18.299-20.27v-7.285c0-10.534-8.036-19.227-18.3-20.27-1.859-10.033-8.033-18.567-16.524-23.597 10.843-14.936 10.609-35.332-.715-50.025l-23.318-30.256c5.794-5.457 9.422-13.188 9.422-21.756.002-16.485-13.411-29.898-29.897-29.898s-29.899 13.413-29.899 29.899c0 8.568 3.628 16.3 9.422 21.756l-23.317 30.256c-11.324 14.693-11.558 35.089-.715 50.024-8.49 5.03-14.664 13.564-16.524 23.597-10.263 1.043-18.3 9.736-18.3 20.27v7.285c0 10.534 8.036 19.227 18.299 20.27 2.596 14.01 13.608 25.098 27.582 27.8.233 38.809-6.114 76.833-18.912 113.123l-7.931 22.489h-2.163c-11.234 0-20.375 9.14-20.375 20.375v7.285c0 3.697 1.005 7.156 2.733 10.148-10.603 5.655-18.434 15.898-20.636 28.366-2.168 12.275-9.629 22.699-22.16 31.022h-1.229c-11.234 0-20.375 9.14-20.375 20.375v7.284c0 11.236 9.141 20.376 20.375 20.376zm124.125-497c8.216 0 14.899 6.684 14.899 14.899 0 8.921-7.857 15.83-16.619 14.792-7.349-.841-13.18-7.128-13.18-14.792.001-8.215 6.684-14.899 14.9-14.899zm-31.914 76.068 24.761-32.128c4.749 1.17 9.889 1.089 14.307 0l24.762 32.128c7.415 9.621 7.415 23.06 0 32.681l-2.646 3.432c-.067-.005-.134-.003-.201-.007-.739-.047-1.482-.079-2.232-.079h-53.672c-.751 0-1.494.032-2.233.079-.067.004-.133.002-.199.007l-2.646-3.433c-7.416-9.621-7.416-23.059-.001-32.68zm5.078 51.027h53.672c8.185 0 15.892 5.195 18.709 13.333h-91.089c2.812-8.126 10.508-13.333 18.708-13.333zm-32.122 46.368c-2.964 0-5.375-2.411-5.375-5.375v-7.285c0-2.964 2.411-5.375 5.375-5.375h117.917c2.964 0 5.375 2.411 5.375 5.375v7.285c0 2.964-2.411 5.375-5.375 5.375-53.642 0-59.761 0-117.917 0zm13.414 15h91.089c-2.683 7.751-10.057 13.333-18.709 13.333h-53.672c-8.652 0-16.025-5.582-18.708-13.333zm-22.289 183.682c0-2.964 2.411-5.375 5.375-5.375h124.917c2.964 0 5.375 2.411 5.375 5.375v7.285c0 2.964-2.411 5.375-5.375 5.375-8.959 0-110.045 0-124.917 0-2.964 0-5.375-2.411-5.375-5.375zm-18.132 48.408c2.123-12.022 12.646-20.749 25.02-20.749h121.892c12.373 0 22.896 8.726 25.019 20.749 1.854 10.492 6.626 20.086 14.049 28.412h-200.029c7.423-8.325 12.196-17.921 14.049-28.412z" fill="#000000" data-original="#000000" style="" class=""/></g></g></g></svg>
