<?xml version="1.0"?>
<svg xmlns="http://www.w3.org/2000/svg" xmlns:xlink="http://www.w3.org/1999/xlink" xmlns:svgjs="http://svgjs.com/svgjs" version="1.1" width="512" height="512" x="0" y="0" viewBox="0 0 512 512" style="enable-background:new 0 0 512 512" xml:space="preserve" class=""><g><g xmlns="http://www.w3.org/2000/svg"><g><path d="m284.339 341.436-2.145-2.11h-51.25l-2.626 2.11c-7.081 0-12.875 5.794-12.875 12.875v7.285c0 7.081 5.794 12.875 12.875 12.875l2.876 1.855h51.5l1.645-1.855c7.081 0 12.875-5.794 12.875-12.875v-7.285c0-7.081-5.794-12.875-12.875-12.875z" fill="#cc9640" data-original="#365e7d" style="" class=""/><path d="m249.891 361.596v-7.285c0-7.081 5.794-12.875 12.875-12.875l2.626-2.11h-34.448l-2.626 2.11c-7.081 0-12.875 5.794-12.875 12.875v7.285c0 7.081 5.794 12.875 12.875 12.875l2.876 1.855h34.448l-2.876-1.855c-7.082 0-12.875-5.794-12.875-12.875z" fill="#cc9640" data-original="#2b4d66" style="" class=""/><path d="m358.297 211.396 3.022-23.445c5.5-47.5-15.333-88.982-15.333-88.982-37-85.899-142-55.268-142-55.268l-13.59 11.373c-.458 1.423-1.144 2.791-2.06 4.047l-11.911 16.329c-3.17 4.346-5.358 9.328-6.413 14.603l-1.102 5.51c-1.373 6.864-4.658 13.201-9.476 18.279l-33.31 35.111c-7.082 7.465-5.185 19.611 3.835 24.562l5.076 2.785c4.79 2.628 10.308 3.615 15.712 2.808l15.012-2.241c1.893-.282 3.442 1.052 3.442 2.967 0 3.014 3.346 4.825 5.869 3.176l25.505-16.667c5.204-3.401 11.289-5.146 17.505-5.167 7.417-.025 18.563-1.795 28.487-10.356 5.019-4.329 12.955-1.586 14.266 4.911 3.271 16.205-1.605 44.47-55.03 75.128-25.561 14.668-39.614 43.854-34.222 72.827.024.127.048.255.072.383 4.191 21.829 23.562 37.446 45.79 37.367h83.38c20.133-.072 36.295-17.215 35.202-37.318-1.107-20.356 2.326-40.891 10.319-60.051 4.12-9.877 8.265-20.904 11.953-32.671z" fill="#ffcf70" data-original="#407093" style="" class=""/><path d="m201.069 106.201c-2-31.75 31.96-60.197 31.96-60.197l-3.46-6.795c-15.283 1.488-25.584 4.492-25.584 4.492l-13.59 11.373c-.458 1.423-1.144 2.791-2.06 4.047l-11.911 16.329c-3.17 4.346-5.358 9.328-6.413 14.603l-1.102 5.51c-1.373 6.864-4.658 13.201-9.476 18.279l-33.31 35.111c-7.082 7.465-5.185 19.611 3.835 24.562l5.076 2.785c4.79 2.628 10.308 3.615 15.712 2.808l15.012-2.241c-21.308-21.084 35.311-70.666 35.311-70.666z" fill="#cc9640" data-original="#365e7d" style="" class=""/><path d="m358.297 211.396c15.543-49.586 22.948-112.356-14.097-157.99-51-62.826-137.844-42.845-167.415-42.132-4.707.113-7.333 5.475-4.532 9.26l16.026 21.656c2.793 3.775 3.5 8.584 2.118 12.884 23.572-8.207 176.11-53.332 167.9 156.322z" fill="#cc9640" data-original="#365e7d" style="" class=""/><path d="m233.027 46-19.176-37.666c-15.567.971-28.642 2.736-37.066 2.939-4.707.113-7.333 5.475-4.532 9.26l16.026 21.656c2.793 3.775 3.5 8.584 2.118 12.884 6.476-2.254 22.69-7.295 42.63-9.073z" fill="#cc9640" data-original="#2b4d66" style="" class=""/><path d="m349.679 434.45c-2.763-15.642-16.521-26.944-32.405-26.944l-5.958-3.554h-109.976l-5.958 3.554c-15.884 0-29.642 11.302-32.405 26.944-2.107 11.93-9.079 25.812-27.316 37.217l3.158 4.784h234.5l3.675-4.784c-18.236-11.405-25.208-25.287-27.315-37.217z" fill="#cc9640" data-original="#365e7d" style="" class=""/><path d="m214.477 434.45c2.763-15.642 16.521-26.944 32.405-26.944l5.958-3.554h-51.5l-5.958 3.554c-15.884 0-29.642 11.302-32.405 26.944-2.107 11.93-9.079 25.812-27.316 37.217l3.158 4.784h51.5l-3.158-4.784c18.237-11.405 25.209-25.287 27.316-37.217z" fill="#cc9640" data-original="#2b4d66" style="" class=""/><path d="m380.453 471.667h-199.6c-5.86 1.312-10.277 6.563-10.277 12.804v7.427c0 6.24 4.417 11.492 10.277 12.804h199.599c7.081 0 12.875-5.794 12.875-12.875v-7.285c.001-7.082-5.793-12.875-12.874-12.875z" fill="#ffcf70" data-original="#407093" style="" class=""/><path d="m170.828 491.826v-7.285c0-7.082 5.794-12.875 12.875-12.875h-51.5c-7.081 0-12.875 5.793-12.875 12.875v7.285c0 7.081 5.794 12.875 12.875 12.875h51.5c-7.081 0-12.875-5.794-12.875-12.875z" fill="#cc9640" data-original="#365e7d" style="" class=""/><path d="m318.787 374.471h-76.309c-5.844 1.328-10.243 6.571-10.243 12.802v7.432c0 6.23 4.4 11.474 10.243 12.802h76.309c7.081 0 12.875-5.794 12.875-12.875v-7.285c0-7.083-5.794-12.876-12.875-12.876z" fill="#ffcf70" data-original="#407093" style="" class=""/><g fill="#365e7d"><path d="m232.495 394.63v-7.285c0-7.081 5.794-12.875 12.875-12.875h-51.5c-7.081 0-12.875 5.794-12.875 12.875v7.285c0 7.081 5.794 12.875 12.875 12.875h51.5c-7.082 0-12.875-5.794-12.875-12.875z" fill="#cc9640" data-original="#365e7d" style="" class=""/><path d="m256.154 142.821-7.658 6.738v.003c4.91-2.351 11.186.455 12.34 6.168 3.271 16.205-1.605 44.47-55.03 75.128-25.561 14.668-39.614 43.854-34.222 72.827.024.127.048.255.072.383 4.191 21.829 23.562 37.446 45.79 37.367h45.322c-68.896-53.194-12.446-89.235 19.187-130.04 15.629-20.161 14.683-41.686 9.726-58.304-4.586-15.362-23.491-20.859-35.527-10.27z" fill="#cc9640" data-original="#365e7d" style="" class=""/></g></g><g><path d="m214.861 87.638-16.294 9.193c-3.607 2.036-4.882 6.61-2.847 10.218 2.034 3.603 6.603 4.884 10.218 2.847l16.294-9.193c3.607-2.036 4.882-6.61 2.847-10.218-2.035-3.607-6.608-4.881-10.218-2.847z" fill="#000000" data-original="#000000" style=""/><path d="m131.875 512h106.625c4.143 0 7.5-3.358 7.5-7.5s-3.357-7.5-7.5-7.5h-106.625c-2.964 0-5.375-2.411-5.375-5.375v-7.284c0-2.964 2.411-5.375 5.375-5.375h248.25c2.964 0 5.375 2.411 5.375 5.375v7.284c0 2.964-2.411 5.375-5.375 5.375h-106.625c-4.143 0-7.5 3.358-7.5 7.5s3.357 7.5 7.5 7.5h106.625c11.234 0 20.375-9.14 20.375-20.375v-7.284c0-11.235-9.141-20.375-20.375-20.375h-1.23c-12.532-8.323-19.992-18.748-22.159-31.021-2.202-12.469-10.033-22.712-20.636-28.366 1.728-2.992 2.733-6.452 2.733-10.148v-7.285c0-11.235-9.141-20.375-20.375-20.375h-14.816c.471-1.716.743-3.512.743-5.375v-7.285c0-1.913-.284-3.757-.779-5.514 10.529-.817 20.559-5.577 27.898-13.353 8.057-8.538 12.315-20.104 11.683-31.734-.216-3.961-.241-8.069-.076-12.209.165-4.139-3.056-7.628-7.195-7.793-4.146-.159-7.628 3.057-7.793 7.195-.184 4.61-.155 9.194.086 13.623.417 7.656-2.287 14.98-7.613 20.624-5.322 5.639-12.47 8.76-20.1 8.787-9.818 0-73.596 0-83.406 0-.049 0-.095 0-.143 0-48.573 0-53.449-70.34-7.737-96.572 24.888-14.282 42.226-29.668 51.532-45.729 7.114-12.278 9.575-25.207 7.116-37.388-2.447-12.127-17.149-17.185-26.517-9.106-8.131 7.015-17.329 8.513-23.613 8.535-7.765.026-15.228 2.235-21.582 6.388l-21.447 14.015c-.532-.828-1.183-1.582-1.939-2.234-2.298-1.979-5.367-2.853-8.435-2.396l-15.012 2.241c-3.76.562-7.665-.137-10.997-1.965l-5.075-2.786c-4.709-2.584-5.705-8.923-2.003-12.824l33.31-35.111c5.799-6.11 9.736-13.708 11.39-21.97l1.103-5.511c.836-4.179 2.605-8.209 5.118-11.654l11.91-16.329c.563-.772 1.054-1.577 1.504-2.396 16.706-5.345 71.58-19.543 110.656 9.397 31.903 23.628 46.794 70.534 44.283 139.408-3.641 11.607-7.651 22.201-11.417 31.229-1.706 4.091-3.264 8.397-4.629 12.801-1.228 3.956.985 8.158 4.941 9.385 3.961 1.228 8.158-.987 9.385-4.942 1.227-3.954 2.621-7.812 4.146-11.469 31.059-74.454 42.381-161.426-18.597-214.14-54.18-46.798-131.497-29.679-158.066-29.04-10.729.254-16.807 12.535-10.38 21.22l16.025 21.656c1.592 2.152 1.916 5.462.027 8.05l-11.91 16.329c-3.784 5.188-6.449 11.257-7.708 17.551l-1.103 5.51c-1.098 5.486-3.712 10.531-7.563 14.588l-33.311 35.111c-10.465 11.031-7.675 28.977 5.669 36.298l5.076 2.786c6.189 3.396 13.443 4.691 20.427 3.651l11.034-1.647c1.019 2.041 2.65 3.762 4.731 4.888 3.652 1.977 8.077 1.793 11.553-.479l25.506-16.667c3.924-2.564 8.567-3.928 13.428-3.945 8.815-.03 21.759-2.167 33.36-12.177.689-.593 1.839-.16 2.016.716 4.39 21.751-13.868 45.595-51.412 67.139-54.815 31.456-51.697 114.8 6.786 123.92-.593 1.908-.914 3.936-.914 6.036v7.285c0 1.863.272 3.659.743 5.375h-14.816c-11.234 0-20.375 9.14-20.375 20.375v7.285c0 3.697 1.005 7.156 2.733 10.148-10.603 5.655-18.434 15.898-20.636 28.367-2.167 12.274-9.628 22.698-22.159 31.021h-1.229c-11.234 0-20.375 9.14-20.375 20.375v7.284c.002 11.236 9.142 20.377 20.377 20.377zm47.977-493.562c32.681-1.805 124.961-19.814 167.43 52.898 13.707 23.681 17.169 51.135 15.289 77.994-6.379-41.884-22.236-72.394-47.416-91.042-33.196-24.584-77.933-24.836-117.687-13.594-.734-2.638-1.988-5.137-3.49-7.166zm42.762 335.671c0-2.964 2.411-5.375 5.375-5.375h56.021c2.964 0 5.375 2.411 5.375 5.375v7.285c0 2.964-2.411 5.375-5.375 5.375h-56.021c-2.964 0-5.375-2.411-5.375-5.375zm-34.448 33.035c0-2.964 2.411-5.375 5.375-5.375h124.917c2.964 0 5.375 2.411 5.375 5.375v7.285c0 2.964-2.411 5.375-5.375 5.375-8.959 0-110.045 0-124.917 0-2.964 0-5.375-2.411-5.375-5.375zm-18.132 48.408c2.123-12.022 12.646-20.749 25.02-20.749h121.892c12.374 0 22.896 8.726 25.02 20.749 1.853 10.491 6.626 20.086 14.048 28.413h-200.028c7.423-8.326 12.195-17.921 14.048-28.413z" fill="#000000" data-original="#000000" style=""/></g></g></g></svg>
